<?xml version="1.0" standalone="no"?>
<!DOCTYPE svg PUBLIC "-//W3C//DTD SVG 1.1//EN" "http://www.w3.org/Graphics/SVG/1.1/DTD/svg11.dtd">
<svg xmlns="http://www.w3.org/2000/svg" viewBox="0 0 304.24 142.45" width="304.239990234375" height="142.4499969482422"><defs><style>.cls-1{fill:#fff;}.cls-2{fill:none;}.cls-3{fill:#3490bf;}.cls-4{fill:#d7c19b;}.cls-5{fill:#e3d5b2;}.cls-6{fill:#010101;}.cls-7{fill:#434345;}.cls-8{fill:#221f1f;}</style></defs><g id="Layer_2" data-name="Layer 2"><g id="Layer_1-2" data-name="Layer 1"><path class="cls-1" d="M304.24,91.06a9.78,9.78,0,0,0-15.65-7.82h0l-1.21-.74a21,21,0,0,0-1.92-.9l-.06,0a20.34,20.34,0,0,0-7.51-1.45,18,18,0,0,0-8.13,1.9,16.38,16.38,0,0,0-6.57,5.83,16.16,16.16,0,0,0-2.59,9v.28l-8.45-15.94H244l-10.17,19.09V81.23H217.12l-16.69-.1v10L188,81.88l-.83-.67-1.16,0h-19l-6.94,0c15.77-5.59,27.15-21.18,27.15-39.5,0-23-17.94-41.69-40-41.69C130.46,0,115.77,10.87,110,26.73c-3.64-.79-8.2-.55-13.61,2.1a7.22,7.22,0,0,0-2.48,11,22.22,22.22,0,0,0,4.65,4.41,20.8,20.8,0,0,0-1.53,11,7.33,7.33,0,0,0,9.54,6.17,23.24,23.24,0,0,0,4.56-2A41.68,41.68,0,0,0,121,73.13a39.49,39.49,0,0,0,13.58,8.1H99.85v4.45a24.6,24.6,0,0,0-5.11-2.74,25.25,25.25,0,0,0-9.37-1.75H66.92v3.94a23,23,0,0,0-2.31-1.51h0a24.61,24.61,0,0,0-24.36,0l0,0a23.66,23.66,0,0,0-2.8,1.89,23.32,23.32,0,0,0-2.51-1.79,22.35,22.35,0,0,0-23.46,0l0,0a24,24,0,0,0-8.36,8.81,25.35,25.35,0,0,0,0,24.13,23.73,23.73,0,0,0,8.38,8.79,22.37,22.37,0,0,0,23.47,0,24,24,0,0,0,2.49-1.78,25.53,25.53,0,0,0,2.84,1.9A24.45,24.45,0,0,0,66.92,124V128H85.37a25.16,25.16,0,0,0,14.48-4.49V128h51.21V116.87l12.2,9.79,1.52,1.27.64,0,15.85,0H199V116.85l5.46,4.37v21.23l6.43-.39a27.31,27.31,0,0,0,4.68-.67h0a24.82,24.82,0,0,0,10.75-5.64,22.39,22.39,0,0,0,5.7-7.77h9.23l3.4-6.16h6.7l3.4,6.16h16.9a22.94,22.94,0,0,0,5,.56A18.11,18.11,0,0,0,289.25,124c2.45-2.19,5.36-6.23,5.36-13.06a16.92,16.92,0,0,0-2.3-9.11l-1-1.5a9.78,9.78,0,0,0,13-9.25Z"/><path class="cls-2" d="M91.92,97.6a10.46,10.46,0,0,0-7.33-3H81.83v20h2.76a10.11,10.11,0,0,0,4-.81,10.42,10.42,0,0,0,3.3-2.22,9.92,9.92,0,0,0,2.2-3.23,9.33,9.33,0,0,0,.76-3.76,10,10,0,0,0-.78-3.81A10.31,10.31,0,0,0,91.92,97.6Z"/><path class="cls-2" d="M57.33,95.79a9.09,9.09,0,0,0-4.91-1.44,9,9,0,0,0-4.92,1.44,10.27,10.27,0,0,0-3.59,3.81,10.1,10.1,0,0,0-1.32,5,9.92,9.92,0,0,0,1.35,5,10.46,10.46,0,0,0,3.56,3.84,9.06,9.06,0,0,0,9.8,0,10.73,10.73,0,0,0,3.6-3.84,10.07,10.07,0,0,0,0-10A10.53,10.53,0,0,0,57.33,95.79Z"/><path class="cls-3" d="M27.73,113.4a8,8,0,0,1-9.14,0,10.37,10.37,0,0,1-3.34-3.81,10.7,10.7,0,0,1-1.25-5,10.91,10.91,0,0,1,1.22-5,10.4,10.4,0,0,1,3.35-3.81,8.05,8.05,0,0,1,9.19,0,9.81,9.81,0,0,1,2,1.88l5.59-5.79a17.27,17.27,0,0,0-3.66-3,16.33,16.33,0,0,0-17.11,0,18,18,0,0,0-6.26,6.6,19.35,19.35,0,0,0,0,18.26,17.79,17.79,0,0,0,6.26,6.57,16.33,16.33,0,0,0,17.11,0,17.57,17.57,0,0,0,3.71-3.08l-5.59-5.79A10,10,0,0,1,27.73,113.4Z"/><path class="cls-3" d="M61.58,88.85a18.42,18.42,0,0,0-25,6.6,17.69,17.69,0,0,0-2.47,9.14,17.48,17.48,0,0,0,2.47,9.11,18.48,18.48,0,0,0,25,6.6,17.83,17.83,0,0,0,6.67-6.6,17.48,17.48,0,0,0,2.47-9.11,17.69,17.69,0,0,0-2.47-9.14A18.12,18.12,0,0,0,61.58,88.85Zm-.68,20.72a10.73,10.73,0,0,1-3.6,3.84,9.06,9.06,0,0,1-9.8,0,10.46,10.46,0,0,1-3.56-3.84,9.92,9.92,0,0,1-1.35-5,10.1,10.1,0,0,1,1.32-5,10.27,10.27,0,0,1,3.59-3.81,9,9,0,0,1,4.92-1.44,9.09,9.09,0,0,1,4.91,1.44A10.53,10.53,0,0,1,60.9,99.6a10.07,10.07,0,0,1,0,10Z"/><path class="cls-3" d="M98.35,92.2a18.71,18.71,0,0,0-5.84-3.64,19.2,19.2,0,0,0-7.14-1.32H73v34.67H85.37a19.12,19.12,0,0,0,7.11-1.32,18.54,18.54,0,0,0,5.87-3.66,17.13,17.13,0,0,0,3.93-5.55,16.27,16.27,0,0,0,1.42-6.79,16.68,16.68,0,0,0-1.42-6.85A17.2,17.2,0,0,0,98.35,92.2Zm-4.26,16.15a9.92,9.92,0,0,1-2.2,3.23,10.42,10.42,0,0,1-3.3,2.22,10.11,10.11,0,0,1-4,.81H81.83v-20h2.76a10.46,10.46,0,0,1,7.33,3,10.31,10.31,0,0,1,2.15,3.18,10,10,0,0,1,.78,3.81A9.33,9.33,0,0,1,94.09,108.35Z"/><polygon class="cls-3" points="105.91 121.95 127.93 121.95 127.93 114.64 114.42 114.64 114.42 107.95 123.26 107.95 121.28 100.64 114.42 100.64 114.42 94.63 127.93 94.63 127.93 87.27 105.91 87.27 105.91 121.95"/><polygon points="158.53 103.24 136.44 86.75 136.44 121.84 145 121.84 144.97 104.22 167.04 121.94 167.04 87.28 158.53 87.24 158.53 103.24"/><polygon points="171.46 121.91 179.97 121.94 179.97 87.28 171.46 87.28 171.46 121.91"/><polygon points="214.99 121.93 214.99 87.27 206.49 87.22 206.49 103.23 184.39 86.73 184.39 121.83 192.95 121.83 192.92 104.21 214.99 121.93"/><path d="M219.49,120.35h0a14.2,14.2,0,0,1-.32,1.66,9,9,0,0,1-2.64,4,10.46,10.46,0,0,1-4.42,2.34l-.08,0h-.1l-.31,0c-.35.07-.7.13-1.08.18V136a21.14,21.14,0,0,0,3.64-.51,18.79,18.79,0,0,0,8.17-4.27,16.19,16.19,0,0,0,4.78-7.31,13.54,13.54,0,0,0,.57-3.2h0V87.29h-8.24Z"/><path d="M228.94,121.91h8.77l3.4-6.15H255l3.39,6.15h8.78L248.05,86.75Zm15.69-12.56,3.42-6.16,3.4,6.16Z"/><path d="M286.67,104.32a11.36,11.36,0,0,0-4.5-3.25q-2.57-1-5-2c-1.6-.68-2.39-1.61-2.39-2.79a2.31,2.31,0,0,1,1.1-2,3.8,3.8,0,0,1,2.24-.76,6,6,0,0,1,2.84.64,12.25,12.25,0,0,1,2.66,2l4.18-6a14.51,14.51,0,0,0-4.62-3,14.24,14.24,0,0,0-5.28-1,12,12,0,0,0-5.45,1.27,10.32,10.32,0,0,0-4.17,3.71,10.12,10.12,0,0,0-1.62,5.72q0,4.27,1.86,6.43a11.68,11.68,0,0,0,4.47,3.25l1.3.53,1.27.52,2.49,1c1.61.7,2.42,1.64,2.42,2.83a2.53,2.53,0,0,1-1.29,2.3,5.23,5.23,0,0,1-2.77.81,7,7,0,0,1-5.79-2.79L266,118.37a13.74,13.74,0,0,0,4.93,3.08,16.67,16.67,0,0,0,5.77,1,12.17,12.17,0,0,0,8.48-3q3.35-3,3.35-8.55Q288.55,106.57,286.67,104.32Z"/><path class="cls-2" d="M147.28,36.38v11h0v-11Z"/><path class="cls-2" d="M176.31,48.74h0Z"/><path class="cls-4" d="M118.21,34.64a28.07,28.07,0,0,0-.76,7h0a39.1,39.1,0,0,0,.78,7,281.92,281.92,0,0,1,29.05-1.35v-11A246.08,246.08,0,0,1,118.21,34.64Z"/><path class="cls-5" d="M177.16,41.7h0a38.31,38.31,0,0,0-.79-7,217.23,217.23,0,0,1-29.07,1.68v11c8.63,0,18.58.36,29,1.4h.08A27.34,27.34,0,0,0,177.16,41.7Z"/><path class="cls-6" d="M147.28,6.06c-16.66,0-30.51,12.61-33.38,29.23-2.82-2.4-7.7-4.54-14.89-1a1.15,1.15,0,0,0-.4,1.75c1.49,1.88,5,5.48,10.16,5.55-3.16,1.84-6.56,5.57-5.77,13a1.28,1.28,0,0,0,1.67,1c2.54-.81,7.6-3.08,9.08-8.5,2.49,17.1,16.56,30.19,33.53,30.19,18.73,0,33.92-15.95,33.92-35.64S166,6.06,147.28,6.06Zm29,42.68c-10.43-1-20.38-1.39-29-1.4h0a281.92,281.92,0,0,0-29,1.35,39.1,39.1,0,0,1-.78-7h0a28.07,28.07,0,0,1,.76-7,246.08,246.08,0,0,0,29.07,1.74h0a217.23,217.23,0,0,0,29.07-1.68,38.31,38.31,0,0,1,.79,7h0a27.34,27.34,0,0,1-.77,7h-.08Z"/><path class="cls-7" d="M120.32,55.73s6.79,15.77,23.75,17.64a29.07,29.07,0,0,0,21.18-6.27S137.6,78,120.32,55.73Z"/><path class="cls-7" d="M173.9,28.09s-6.8-15.77-23.75-17.63A29.09,29.09,0,0,0,129,16.73S156.61,5.8,173.9,28.09Z"/><path class="cls-6" d="M137.86,40.93,127,39.64a.6.6,0,0,0-.55,1c4.22,5.05,9.37,2.73,11.63,1.3a.54.54,0,0,0-.24-1Z"/><path class="cls-6" d="M156.48,41.92c2.26,1.43,7.41,3.75,11.63-1.3a.6.6,0,0,0-.55-1l-10.84,1.29a.54.54,0,0,0-.24,1Z"/><path class="cls-8" d="M299.37,91.06a4.9,4.9,0,1,1-1.43-3.48A4.72,4.72,0,0,1,299.37,91.06Zm-7.53-2.68a3.8,3.8,0,0,0,0,5.35,3.61,3.61,0,0,0,2.65,1.1,3.78,3.78,0,0,0,0-7.56A3.58,3.58,0,0,0,291.84,88.38Zm1,5.22v-5h1.41a3.11,3.11,0,0,1,1.06.16,1.35,1.35,0,0,1,.7.5,1.52,1.52,0,0,1,.25.9,1.38,1.38,0,0,1-.22.77,1.17,1.17,0,0,1-.59.51l1.26,2.2h-1.45L294,91.34h0V93.6ZM294,91.05a1.58,1.58,0,0,0,.52-.08.62.62,0,0,0,.32-.23.81.81,0,0,0,.11-.43.6.6,0,0,0-.23-.54,1.57,1.57,0,0,0-.72-.13Z"/></g></g></svg>